<svg width="124" height="20" viewBox="0 0 124 20" fill="none" xmlns="http://www.w3.org/2000/svg">
<g id="Vector">
<path d="M39.0516 8.51355L37.1821 9.617V9.66113L39.0516 10.7646V16.1494L36.559 17.628H28.8448V2.17975H36.559L39.0516 3.65838V8.51355ZM30.9936 10.6322V15.6418H36.9028V10.6322H30.9936ZM30.9936 4.16596V8.64596H36.9028V4.16596H30.9936Z" fill="white"/>
<path d="M42.9252 17.628V2.17975H45.074V15.6418H50.6394V17.628H42.9252Z" fill="white"/>
<path d="M53.2075 17.628V2.17975H55.3563V17.628H53.2075Z" fill="white"/>
<path d="M58.8003 4.16596V2.17975H68.5772V3.50389L61.1639 15.5977V15.6418H68.5772V17.628H58.3705V16.3039L65.7838 4.2101V4.16596H58.8003Z" fill="white"/>
<path d="M71.3698 4.16596V2.17975H81.1468V3.50389L73.7335 15.5977V15.6418H81.1468V17.628H70.9401V16.3039L78.3534 4.2101V4.16596H71.3698Z" fill="white"/>
<path d="M90.9015 2.17975L96.2734 17.628H94.1676L92.8998 13.9646H86.2386L84.9708 17.628H82.865L88.237 2.17975H90.9015ZM89.5477 4.36458L86.9262 11.9784H92.2122L89.5907 4.36458H89.5477Z" fill="white"/>
<path d="M104.032 11.4708H100.787V17.628H98.6384V2.17975H106.353L108.845 3.65838V9.99217L106.353 11.4708L109.812 17.628H107.427L104.032 11.4708ZM100.787 4.16596V9.48458H106.696V4.16596H100.787Z" fill="white"/>
<path d="M124 16.1494L121.507 17.628H112.719V2.17975H121.507L124 3.65838V16.1494ZM114.868 4.16596V15.6418H121.851V4.16596H114.868Z" fill="white"/>
<path d="M6.71496 3.43249L9.40094 3.36638V16.5675L6.71496 16.6336V3.43249ZM2.68598 11.7823V8.48207L13.4299 8.21765V11.5179L2.68598 11.7823ZM9.40094 0.0661037L12.0869 0V3.30028L9.40094 3.36638V0.0661037ZM9.40094 16.5675L12.0869 16.5014V19.8017L9.40094 19.8678V16.5675ZM13.4299 11.5179L16.1159 11.4518V14.7521L13.4299 14.8182V11.5179ZM0 11.8485L2.68598 11.7823V15.0826L0 15.1487V11.8485ZM13.4299 4.91737L16.1159 4.85127V8.15155L13.4299 8.21765V4.91737ZM0 5.24789L2.68598 5.18179V8.48207L0 8.54817V5.24789ZM4.02898 16.6997L6.71496 16.6336V19.9339L4.02898 20V16.6997ZM4.02898 0.198311L6.71496 0.132207V3.43249L4.02898 3.49859V0.198311Z" fill="white"/>
</g>
</svg>
